<svg width="35" height="39" viewBox="0 0 35 39" fill="none" xmlns="http://www.w3.org/2000/svg">
<g clip-path="url(#clip0_257153_367)">
<path d="M12.8741 8.01019C12.7045 9.83582 19.5247 10.4482 22.598 10.7246C25.6713 11.0011 32.3521 11.602 32.5217 9.77641C32.6912 7.95078 29.8387 4.37265 25.0836 2.49218C14.5304 -1.68231 5.91683 2.84406 3.93535 3.52724C3.15948 3.79685 12.9322 7.40013 12.8741 8.01019Z" fill="#CD3C32"/>
<path d="M0.0114908 2.99967C-0.127887 4.50998 1.00339 5.84893 2.54119 5.98602C4.07899 6.12311 5.43792 5.01037 5.5773 3.50006C5.71667 1.98746 4.58539 0.650801 3.04992 0.511423C1.51212 0.374329 0.153191 1.48707 0.0114908 2.99967Z" fill="white"/>
<path d="M9.8745 18.4707C9.41223 27.7771 15.4101 29.2371 22.2396 29.2371C29.0691 29.2371 34.6047 25.7252 34.6047 18.4707C34.6047 11.2162 29.0552 8.3418 22.228 8.3418C15.3962 8.3418 10.3228 9.46139 9.8745 18.4707Z" fill="white"/>
<path d="M11.2991 19.6406C10.8972 28.9469 16.096 30.407 22.0102 30.407C27.9268 30.407 32.7214 26.8951 32.7214 19.6406C32.7214 12.3883 27.9268 8.87646 22.0102 8.87646C16.0937 8.87646 11.687 10.6313 11.2991 19.6406Z" fill="#F8C1A5"/>
<path d="M14.1445 21.7151C14.1445 22.4188 15.0946 22.9878 16.2653 22.9878C17.4361 22.9878 18.3862 22.4188 18.3862 21.7151C18.3862 21.0113 17.4361 20.4424 16.2653 20.4424C15.0946 20.4424 14.1445 21.0113 14.1445 21.7151Z" fill="#FBE1DB"/>
<path d="M25.0057 21.7151C25.0057 22.4188 25.9558 22.9878 27.1266 22.9878C28.2974 22.9878 29.2475 22.4188 29.2475 21.7151C29.2475 21.0113 28.2974 20.4424 27.1266 20.4424C25.9558 20.4424 25.0057 21.0113 25.0057 21.7151Z" fill="#FBE1DB"/>
<path d="M9.02039 20.1752C9.02039 22.1562 10.0402 22.4669 11.2992 22.4669C12.5582 22.4669 13.578 21.7198 13.578 20.1752C13.578 18.6329 12.5582 17.8857 11.2992 17.8857C10.0402 17.8857 9.02039 18.1942 9.02039 20.1752Z" fill="#F8C1A5"/>
<path d="M30.4424 20.1752C30.4424 22.1562 31.4622 22.4669 32.7212 22.4669C33.9802 22.4669 35 21.7198 35 20.1752C35 18.6329 33.9802 17.8857 32.7212 17.8857C31.4622 17.8857 30.4424 18.1942 30.4424 20.1752Z" fill="#F8C1A5"/>
<path d="M15.9488 22.2314C17.468 21.8018 19.5354 21.7356 21.6145 21.7173V25.3982C21.1359 25.3366 20.7921 25.2977 20.4065 25.4165C17.6585 26.2665 16.7781 25.3525 15.2867 25.252C14.5898 25.204 13.2704 25.4279 13.2704 25.4279C13.2704 25.4279 13.577 22.9031 15.9488 22.2314Z" fill="#F0F8FD"/>
<path d="M28.23 22.2319C26.7108 21.8023 24.6434 21.7361 22.5643 21.7178V25.3987C23.0429 25.337 23.3867 25.2982 23.7723 25.417C26.5203 26.267 27.4007 25.353 28.8921 25.2525C29.589 25.2045 30.9084 25.4284 30.9084 25.4284C30.9084 25.4284 30.5994 22.9036 28.23 22.2319Z" fill="#F0F8FD"/>
<path d="M22.0099 13.38C16.6671 13.38 12.2511 13.9124 12.7343 19.6406H11.2987C11.6866 10.1834 16.0956 8.3418 22.0099 8.3418C27.9264 8.3418 32.721 12.0273 32.721 19.6406H31.4782C31.8453 14.4859 26.3468 13.38 22.0099 13.38Z" fill="white"/>
<path d="M32.7205 19.6406C32.4858 23.63 34.5788 26.4679 34.6021 29.7947C34.6323 34.1702 31.7541 38.4978 22.0093 38.4978C11.7325 38.4978 8.81723 33.9829 9.01933 29.2349C9.15406 26.0566 11.2889 23.3741 11.2982 19.6406C11.2982 19.6406 12.6199 17.8081 12.7337 19.6406C12.9916 23.7945 17.3262 21.7153 21.9117 21.7153C26.8318 21.7153 30.818 22.988 31.4777 19.6406C31.6821 18.6078 32.7205 19.6406 32.7205 19.6406Z" fill="white"/>
<path d="M19.9452 24.6627C19.9452 25.5012 20.8256 26.1798 21.9127 26.1798C22.9999 26.1798 23.8803 25.5012 23.8803 24.6627C23.8803 23.8241 22.9999 23.1455 21.9127 23.1455C20.8256 23.1455 19.9452 23.8264 19.9452 24.6627Z" fill="#CD3C32"/>
<path d="M13.6288 24.8842C13.6288 24.8842 14.6764 24.4249 16.112 24.8088C17.3664 25.1424 18.9065 25.853 20.3026 25.4508C22.3979 24.8476 22.0867 22.8621 22.0867 22.8621C22.0867 22.8621 20.7672 21.4043 18.5163 21.4112C14.7461 21.4203 13.6288 24.8842 13.6288 24.8842Z" fill="white"/>
<path d="M30.3882 24.8842C30.3882 24.8842 29.3406 24.4249 27.905 24.8088C26.6506 25.1424 25.1105 25.853 23.7144 25.4508C21.6191 24.8476 21.928 22.8621 21.928 22.8621C21.928 22.8621 23.2474 21.4043 25.4984 21.4112C29.2732 21.4203 30.3882 24.8842 30.3882 24.8842Z" fill="white"/>
<path d="M19.2596 21.2947C19.2596 22.2932 20.4467 23.102 21.9125 23.102C23.3782 23.102 24.5653 22.2932 24.5653 21.2947C24.5653 20.2962 23.3782 19.4873 21.9125 19.4873C20.4467 19.4873 19.2596 20.2984 19.2596 21.2947Z" fill="#F2937B"/>
<path d="M10.2331 15.7355C10.535 16.2702 16.5236 14.4263 22.0105 14.3257C27.8318 14.2184 33.6833 16.3182 34.285 15.6373C35.4534 14.312 33.8924 10.1741 32.7216 9.27842C30.0061 7.19917 14.1449 7.70642 12.2285 8.87856C11.0624 9.58916 9.43629 14.3257 10.2331 15.7355Z" fill="white"/>
<path d="M10.4393 15.3929C11.566 14.9542 12.6531 14.3784 13.8053 14.006C15.285 13.5261 16.8112 13.3022 18.3629 13.1994C21.6871 12.9801 25.067 13.1149 28.3656 13.5764C29.9103 13.7935 31.4319 14.1111 32.9674 14.3715C33.5365 14.4675 34.1497 14.4195 34.6956 14.2253C34.6933 14.8057 34.5725 15.3084 34.2822 15.6351C33.6805 16.3183 27.829 14.2162 22.0076 14.3236C16.5208 14.4264 10.5322 16.268 10.2303 15.7333C10.1931 15.6648 10.1606 15.5871 10.1327 15.5049C10.2372 15.4706 10.3394 15.434 10.4393 15.3929Z" fill="#F0F8FD"/>
<path opacity="0.3" d="M20.2948 20.3352C20.2948 20.7191 21.0196 21.0276 21.9116 21.0276C22.8036 21.0276 23.5284 20.7168 23.5284 20.3352C23.5284 19.9514 22.8059 19.6406 21.9116 19.6406C21.0196 19.6406 20.2948 19.9514 20.2948 20.3352Z" fill="white"/>
<path d="M16.9257 18.3657C16.9257 18.9232 17.3856 19.3779 17.9547 19.3779C18.5215 19.3779 18.9838 18.9255 18.9838 18.3657C18.9838 17.8082 18.5239 17.3535 17.9547 17.3535C17.3879 17.3535 16.9257 17.8059 16.9257 18.3657Z" fill="#2F120C"/>
<path d="M25.9033 18.3657C25.9033 18.9232 26.3633 19.3779 26.9324 19.3779C27.5015 19.3779 27.9615 18.9255 27.9615 18.3657C27.9615 17.8082 27.5015 17.3535 26.9324 17.3535C26.3656 17.3535 25.9033 17.8059 25.9033 18.3657Z" fill="#2F120C"/>
<path d="M14.7244 16.8189C15.268 17.1251 17.0729 16.0169 19.0381 16.2842C19.9859 16.4122 19.5887 14.6642 19.0381 14.4906C17.3633 13.9559 15.5792 14.3329 14.7081 15.4525C13.9903 16.3733 14.1808 16.5127 14.7244 16.8189Z" fill="white"/>
<path d="M29.1343 16.5606C28.5907 16.8668 26.7858 15.7586 24.8205 16.0259C23.8728 16.1539 24.2723 14.4059 24.8205 14.2323C26.4954 13.6976 28.2794 14.0746 29.1505 15.1942C29.8707 16.115 29.6778 16.2544 29.1343 16.5606Z" fill="white"/>
</g>
<defs>
<clipPath id="clip0_257153_367">
<rect width="35" height="38" fill="white" transform="translate(-0.00012207 0.5)"/>
</clipPath>
</defs>
</svg>
