<svg width="20" height="20" viewBox="0 0 20 20" fill="none" xmlns="http://www.w3.org/2000/svg">
<path d="M15.5887 11.5787L12.5887 10.0787C12.4706 10.0199 12.3391 9.99325 12.2074 10.0015C12.0757 10.0097 11.9485 10.0525 11.8387 10.1256L10.4615 11.0444C9.8293 10.6968 9.30904 10.1766 8.9615 9.54437L9.88025 8.16719C9.95334 8.05734 9.99616 7.93016 10.0044 7.79848C10.0126 7.6668 9.98597 7.53528 9.92712 7.41719L8.42712 4.41719C8.36495 4.29163 8.26885 4.186 8.14972 4.11226C8.03058 4.03853 7.89317 3.99964 7.75306 4C6.7585 4 5.80467 4.39509 5.10141 5.09835C4.39815 5.80161 4.00306 6.75544 4.00306 7.75C4.00554 9.93727 4.87553 12.0343 6.42217 13.5809C7.96881 15.1275 10.0658 15.9975 12.2531 16C12.7455 16 13.2332 15.903 13.6881 15.7145C14.1431 15.5261 14.5565 15.2499 14.9047 14.9017C15.2529 14.5534 15.5292 14.14 15.7176 13.6851C15.9061 13.2301 16.0031 12.7425 16.0031 12.25C16.0032 12.1107 15.9644 11.9741 15.8913 11.8555C15.8181 11.7369 15.7133 11.6411 15.5887 11.5787ZM12.2531 14.5C10.4635 14.498 8.74772 13.7862 7.48228 12.5208C6.21684 11.2553 5.50505 9.5396 5.50306 7.75C5.50292 7.2298 5.68303 6.72562 6.01275 6.32326C6.34246 5.9209 6.80142 5.64521 7.3115 5.54313L8.38775 7.69938L7.47181 9.0625C7.40337 9.16517 7.36131 9.28314 7.34937 9.40596C7.33744 9.52877 7.35598 9.65263 7.40337 9.76656C7.93999 11.0419 8.95458 12.0565 10.2299 12.5931C10.3442 12.6426 10.469 12.6629 10.5931 12.6521C10.7171 12.6413 10.8366 12.5998 10.9406 12.5312L12.3103 11.6181L14.4665 12.6944C14.3636 13.205 14.0867 13.6642 13.6831 13.9935C13.2794 14.3228 12.774 14.5018 12.2531 14.5ZM10.0031 0.25C8.31975 0.249633 6.66502 0.685083 5.19992 1.51396C3.73483 2.34285 2.50929 3.53692 1.6426 4.97997C0.775904 6.42301 0.297577 8.06587 0.254176 9.74862C0.210776 11.4314 0.603781 13.0967 1.39494 14.5825L0.330875 17.7747C0.242736 18.039 0.229945 18.3226 0.293936 18.5938C0.357927 18.8649 0.496171 19.1129 0.693173 19.3099C0.890176 19.5069 1.13815 19.6451 1.40931 19.7091C1.68046 19.7731 1.96408 19.7603 2.22838 19.6722L5.42056 18.6081C6.72816 19.3036 8.17701 19.6921 9.65715 19.744C11.1373 19.7959 12.6098 19.51 13.9629 18.9079C15.3161 18.3057 16.5142 17.4033 17.4665 16.269C18.4188 15.1346 19.1001 13.7983 19.4588 12.3613C19.8175 10.9244 19.8441 9.42456 19.5366 7.97578C19.2291 6.52701 18.5956 5.16732 17.6842 3.99992C16.7728 2.83253 15.6074 1.88811 14.2765 1.23836C12.9456 0.588614 11.4841 0.250608 10.0031 0.25ZM10.0031 18.25C8.55273 18.251 7.12784 17.8691 5.87244 17.1428C5.78052 17.0895 5.67833 17.0563 5.57263 17.0455C5.46692 17.0347 5.36013 17.0464 5.25931 17.08L1.75306 18.25L2.92213 14.7438C2.95582 14.643 2.96773 14.5362 2.95707 14.4305C2.9464 14.3248 2.9134 14.2226 2.86025 14.1306C1.95085 12.5584 1.58573 10.7299 1.82153 8.92896C2.05733 7.12801 2.88087 5.4552 4.1644 4.17006C5.44792 2.88491 7.11968 2.05925 8.92034 1.82118C10.721 1.5831 12.5499 1.94591 14.1233 2.85333C15.6967 3.76074 16.9267 5.16204 17.6225 6.83983C18.3182 8.51762 18.4408 10.3781 17.9713 12.1327C17.5017 13.8873 16.4663 15.4379 15.0256 16.5439C13.5849 17.65 11.8194 18.2497 10.0031 18.25Z" fill="#CD3C32"/>
</svg>
